<?xml version="1.0" encoding="UTF-8"?>
<svg width="65.976mm" height="65.976mm" version="1.1" viewBox="0 0 65.976 65.976" xmlns="http://www.w3.org/2000/svg">
<g transform="translate(-45.974 -26.052)" fill="none" stroke="#666666">
<path d="m95.224 84.25a30 30 0 0 1-41.445-8.9039 30 30 0 0 1 8.8332-41.46 30 30 0 0 1 41.475 8.7625 30 30 0 0 1-8.6918 41.49z" stroke-width="6"/>
<path d="m84.925 60.342a11 11 0 0 1-15.196-3.2647 11 11 0 0 1 3.2388-15.202 11 11 0 0 1 15.207 3.2129 11 11 0 0 1-3.187 15.213z" stroke-width="6"/>
<path transform="matrix(.1185 .99295 -.99215 .12508 0 0)" d="m92.277-53.696a16.9 15.04 0 0 1-16.101-8.0127 16.9 15.04 0 0 1 1.7266-16.345 16.9 15.04 0 0 1 17.497-5.2019" stroke-width="6.0001"/>
</g>
</svg>
