<?xml version="1.0" encoding="UTF-8" standalone="no"?>
<!-- Created with Inkscape (http://www.inkscape.org/) -->

<svg
   width="208.24414mm"
   height="42.638229mm"
   viewBox="0 0 208.24414 42.638229"
   version="1.1"
   id="svg1"
   inkscape:version="1.3.1 (9b9bdc1480, 2023-11-25, custom)"
   sodipodi:docname="stars.svg"
   xmlns:inkscape="http://www.inkscape.org/namespaces/inkscape"
   xmlns:sodipodi="http://sodipodi.sourceforge.net/DTD/sodipodi-0.dtd"
   xmlns="http://www.w3.org/2000/svg"
   xmlns:svg="http://www.w3.org/2000/svg">
  <sodipodi:namedview
     id="namedview1"
     pagecolor="#ffffff"
     bordercolor="#000000"
     borderopacity="0.25"
     inkscape:showpageshadow="2"
     inkscape:pageopacity="0.0"
     inkscape:pagecheckerboard="0"
     inkscape:deskcolor="#d1d1d1"
     inkscape:document-units="mm"
     inkscape:zoom="0.72693603"
     inkscape:cx="408.56415"
     inkscape:cy="242.11209"
     inkscape:window-width="1846"
     inkscape:window-height="1016"
     inkscape:window-x="74"
     inkscape:window-y="27"
     inkscape:window-maximized="1"
     inkscape:current-layer="layer1" />
  <defs
     id="defs1" />
  <g
     inkscape:label="Слой 1"
     inkscape:groupmode="layer"
     id="layer1"
     transform="translate(-7.3671059,-120.78606)">
    <path
       style="fill:#2b0000;stroke-width:5.67022"
       d="m 10.663074,81.351511 c 69.061849,0 138.123696,0 207.185546,0 0,-13.86002 0,-27.72005 0,-41.58008 -69.06185,0 -138.123697,0 -207.185546,0 0,13.86003 0,27.72006 0,41.58008 z"
       id="rect2" />
    <path
       id="rect1"
       style="fill:#ffffff;stroke:#666666;stroke-width:2;stroke-dasharray:none;stroke-opacity:1;fill-opacity:1"
       d="M -35.626833,93.864844 V 197.38463 H 250.60272 V 93.864844 Z m 65.679195,29.361006 6.452836,12.79043 14.158309,2.1239 13.594002,-2.09703 6.399093,-12.8173 6.452319,12.79043 14.167094,2.12494 -10.170439,10.0893 2.356963,14.13041 -12.738241,-6.55516 -12.710335,6.60787 2.297534,-14.13971 -9.967867,-9.80664 -9.841777,9.76323 2.356962,14.13041 -12.73824,-6.55516 -12.710335,6.60787 2.297534,-14.13971 L 9.4954769,138.227 23.653786,136.04315 Z m 82.042528,0 6.45232,12.79043 14.1671,2.12494 -0.0558,0.0553 13.96038,-2.15336 6.3991,-12.81731 6.45232,12.79044 14.16709,2.12493 -0.0842,0.0837 14.14332,-2.18178 6.39909,-12.8173 6.45232,12.79043 14.1671,2.12494 -10.16993,10.0893 2.35645,14.13041 -12.73772,-6.55516 -12.71086,6.60787 2.29754,-14.13971 -10.20558,-10.04073 -10.07794,9.99732 2.35696,14.13041 -12.73824,-6.55516 -12.71033,6.60787 2.29753,-14.13971 -10.12806,-9.96425 -10.00043,9.92084 2.35645,14.13041 -12.73824,-6.55516 -12.710336,6.60787 2.297536,-14.13971 L 91.537498,138.227 105.6958,136.04315 Z" />
  </g>
</svg>
